<?xml version="1.0" encoding="UTF-8"?><svg id="Camada_2" xmlns="http://www.w3.org/2000/svg" viewBox="0 0 33.47 33.64"><defs><style>.cls-1{fill:#d85151;}</style></defs><g id="Camada_1-2"><path class="cls-1" d="M.47,33.64c-.31,0-.47-.19-.47-.56V.56C0,.19.15,0,.47,0h.37C1.9,0,2.8.44,3.55,1.31c.75.87,1.12,2.06,1.12,3.55v28.22c0,.37-.16.56-.47.56H.47Z"/><path class="cls-1" d="M29.27,33.64c-.31,0-.47-.19-.47-.56V4.86c0-1.49.37-2.68,1.12-3.55C30.67.44,31.57,0,32.63,0h.37c.31,0,.47.19.47.56v32.52c0,.37-.15.56-.47.56h-3.74Z"/><path class="cls-1" d="M16.74,4.78h0c1.32,0,2.39,1.07,2.39,2.39v25.72c0,.41-.34.75-.75.75h-3.27c-.41,0-.75-.34-.75-.75V7.17c0-1.32,1.07-2.39,2.39-2.39Z"/></g></svg>