<?xml version="1.0" encoding="UTF-8"?>
<svg id="Camada_2" data-name="Camada 2" xmlns="http://www.w3.org/2000/svg" width="1.1cm" height="1.2cm" viewBox="0 0 32.6 33.5">
  <path d="M.7,33.5c-.4,0-.7-.3-.7-.8V.8C0,.3.2,0,.7,0h.5c1.5,0,2.7.6,3.8,1.8,1,1.2,1.6,2.9,1.6,4.9v26c0,.5-.2.8-.7.8H.7Z" style="fill: #d85151;"/>
  <path d="M26.7,33.5c-.4,0-.7-.3-.7-.8V6.8c0-2.1.5-3.7,1.6-4.9,1-1.2,2.3-1.8,3.8-1.8h.5c.4,0,.7.3.7.8v31.9c0,.5-.2.8-.7.8h-5.2,0Z" style="fill: #d85151;"/>
  <path d="M16.3,6.6h0c1.8,0,3.3,1.5,3.3,3.3v22.5c0,.6-.5,1-1,1h-4.5c-.6,0-1-.5-1-1V10c0-1.8,1.5-3.3,3.3-3.3h0Z" style="fill: #d85151;"/>
</svg>