<?xml version="1.0" encoding="UTF-8"?><svg id="Camada_2" xmlns="http://www.w3.org/2000/svg" viewBox="0 0 275.2 34.31"><defs><style>.cls-1{fill:#2d595e;}.cls-2{fill:#d85151;}</style></defs><g id="Camada_1-2"><path class="cls-1" d="M59.99,14.34c.61-.93,1.48-1.73,2.63-2.42,1.15-.69,2.53-1.03,4.15-1.03,1.77,0,3.31.36,4.6,1.09,1.29.73,2.32,1.74,3.09,3.03.73-1.05,1.72-2,2.99-2.84,1.27-.85,2.85-1.27,4.75-1.27,2.86,0,5.09.87,6.69,2.6,1.59,1.74,2.39,4.09,2.39,7.08v12.52c0,.36-.16.54-.48.54h-3.51c-.32,0-.48-.18-.48-.54v-11.74c0-2.14-.48-3.72-1.45-4.75s-2.28-1.54-3.93-1.54c-1.74,0-3.12.53-4.14,1.6-1.03,1.07-1.54,2.71-1.54,4.93v11.5c0,.36-.16.54-.48.54h-3.57c-.32,0-.48-.18-.48-.54v-11.74c0-2.14-.47-3.72-1.42-4.75-.95-1.03-2.25-1.54-3.9-1.54-1.78,0-3.18.53-4.2,1.6-1.03,1.07-1.54,2.71-1.54,4.93v11.5c0,.36-.14.54-.42.54h-3.57c-.32,0-.48-.18-.48-.54V11.86c0-.32.16-.48.48-.48h.3c2.02,0,3.21.99,3.57,2.96Z"/><path class="cls-1" d="M101.07,24.14c.24,2.1,1.01,3.64,2.3,4.63,1.29.99,2.98,1.48,5.08,1.48,1.69,0,3.05-.22,4.05-.67,1.01-.44,1.94-.97,2.78-1.57.16-.08.31-.18.45-.3.14-.12.27-.18.39-.18.2,0,.35.09.45.27.1.18.15.37.15.57,0,.85-.33,1.72-1,2.63-.67.91-1.65,1.66-2.96,2.27s-2.93.91-4.87.91-3.82-.41-5.54-1.24c-1.72-.83-3.11-2.1-4.18-3.81-1.07-1.71-1.6-3.92-1.6-6.63,0-2.26.44-4.27,1.33-6.02.89-1.75,2.13-3.14,3.72-4.14,1.59-1.01,3.44-1.51,5.54-1.51,2.38,0,4.3.49,5.75,1.48,1.45.99,2.51,2.26,3.18,3.81.66,1.55,1,3.2,1,4.93,0,.52-.01.97-.03,1.33s-.05.71-.09,1.03c-.04.48-.34.73-.91.73h-15ZM101.19,20.69h11.44c.04-.93-.09-1.83-.39-2.72-.3-.89-.86-1.63-1.67-2.24s-1.96-.91-3.45-.91c-1.69,0-3.06.51-4.08,1.54s-1.64,2.47-1.85,4.33Z"/><path class="cls-1" d="M126.84,14.34c.6-.93,1.48-1.73,2.63-2.42,1.15-.69,2.53-1.03,4.14-1.03,1.77,0,3.31.36,4.6,1.09,1.29.73,2.32,1.74,3.09,3.03.73-1.05,1.72-2,2.99-2.84,1.27-.85,2.85-1.27,4.75-1.27,2.86,0,5.09.87,6.69,2.6,1.59,1.74,2.39,4.09,2.39,7.08v12.52c0,.36-.16.54-.48.54h-3.51c-.32,0-.48-.18-.48-.54v-11.74c0-2.14-.48-3.72-1.45-4.75s-2.28-1.54-3.93-1.54c-1.74,0-3.12.53-4.14,1.6-1.03,1.07-1.54,2.71-1.54,4.93v11.5c0,.36-.16.54-.48.54h-3.57c-.32,0-.48-.18-.48-.54v-11.74c0-2.14-.47-3.72-1.42-4.75-.95-1.03-2.25-1.54-3.9-1.54-1.78,0-3.18.53-4.2,1.6-1.03,1.07-1.54,2.71-1.54,4.93v11.5c0,.36-.14.54-.42.54h-3.57c-.32,0-.48-.18-.48-.54V11.86c0-.32.16-.48.48-.48h.3c2.02,0,3.21.99,3.57,2.96Z"/><path class="cls-1" d="M174.7,34.18c-3.43,0-6.16-1.06-8.2-3.18-2.04-2.12-3.06-4.93-3.06-8.44s1.02-6.34,3.06-8.5c2.04-2.16,4.75-3.24,8.14-3.24s6.17,1.08,8.23,3.24c2.06,2.16,3.09,4.97,3.09,8.44s-1.02,6.33-3.06,8.47c-2.04,2.14-4.77,3.21-8.2,3.21ZM174.64,29.89c1.9,0,3.48-.6,4.75-1.81,1.27-1.21,1.91-3.05,1.91-5.51s-.64-4.21-1.91-5.51c-1.27-1.29-2.85-1.94-4.75-1.94s-3.51.65-4.72,1.94c-1.21,1.29-1.82,3.13-1.82,5.51s.61,4.2,1.82,5.45c1.21,1.25,2.78,1.88,4.72,1.88Z"/><path class="cls-1" d="M195.82,14.58c.73-1.25,1.59-2.1,2.6-2.54,1.01-.44,2.32-.67,3.93-.67h.66c.32,0,.48.16.48.48v3.33c0,.36-.16.54-.48.54h-1.45c-2.14,0-3.61.54-4.42,1.63-.81,1.09-1.21,2.8-1.21,5.14v10.59c0,.36-.14.54-.42.54h-3.57c-.32,0-.48-.18-.48-.54V11.86c0-.32.16-.48.48-.48h.3c1.01,0,1.82.27,2.45.82.62.54,1,1.34,1.12,2.39Z"/><path class="cls-1" d="M224.74,30.49c-.89,1.25-1.96,2.18-3.21,2.78s-2.64.91-4.17.91c-2.22,0-4.1-.52-5.66-1.57s-2.73-2.46-3.54-4.24c-.81-1.77-1.21-3.73-1.21-5.87,0-2.26.44-4.27,1.33-6.02.89-1.75,2.13-3.14,3.72-4.14,1.59-1.01,3.44-1.51,5.54-1.51,1.69,0,3.18.32,4.45.97,1.27.65,2.27,1.49,2.99,2.54.2-1.05.61-1.8,1.21-2.27.61-.46,1.37-.7,2.3-.7h.3c.28,0,.42.18.42.54v21.18c0,.36-.14.54-.42.54h-3.57c-.32,0-.48-.18-.48-.54v-2.6ZM218.02,29.95c1.01,0,2.03-.21,3.06-.64s1.9-1.18,2.6-2.27c.7-1.09,1.06-2.6,1.06-4.54s-.35-3.5-1.06-4.57c-.71-1.07-1.56-1.8-2.57-2.21-1.01-.4-1.98-.6-2.9-.6-1.74,0-3.27.6-4.6,1.82-1.33,1.21-2,3.07-2,5.57,0,1.82.33,3.27,1,4.36s1.49,1.88,2.48,2.36c.99.48,1.97.73,2.93.73Z"/><path class="cls-1" d="M241.25,34.18c-1.74,0-3.11-.55-4.11-1.66-1.01-1.11-1.51-2.87-1.51-5.29V.54c0-.36.16-.54.48-.54h.3c2.46,0,3.69,1.39,3.69,4.17v22.75c0,2.1.79,3.15,2.36,3.15.64,0,1.19-.13,1.63-.39.44-.26.87-.61,1.27-1.06.2-.24.4-.36.61-.36s.34.08.42.24c.08.16.12.34.12.55,0,.65-.17,1.37-.51,2.18-.34.81-.9,1.5-1.66,2.09-.77.58-1.8.88-3.09.88Z"/><path class="cls-1" d="M249.24,5.38c0-.81.26-1.47.79-2,.52-.52,1.17-.79,1.94-.79.73,0,1.35.26,1.88.79.52.52.79,1.19.79,2s-.26,1.41-.79,1.94c-.53.52-1.15.79-1.88.79-.77,0-1.41-.26-1.94-.79-.53-.52-.79-1.17-.79-1.94ZM250.15,33.64c-.32,0-.48-.18-.48-.54V11.92c0-.36.16-.54.48-.54h.3c1.17,0,2.09.34,2.75,1.03.67.69,1,1.74,1,3.15v17.55c0,.36-.16.54-.48.54h-3.57Z"/><path class="cls-1" d="M273.02,16.21c-.97-.52-1.9-.91-2.78-1.15-.89-.24-1.86-.36-2.9-.36s-1.91.2-2.57.6c-.67.4-1,1.01-1,1.82s.38,1.39,1.15,1.88c.77.48,1.71.93,2.84,1.33,1.13.4,2.27.87,3.42,1.39,1.15.52,2.11,1.2,2.87,2.03.77.83,1.15,1.95,1.15,3.36,0,2.14-.76,3.87-2.27,5.2-1.51,1.33-3.58,2-6.2,2-1.66,0-3.09-.29-4.3-.88-1.21-.58-2.14-1.32-2.78-2.21-.64-.89-.97-1.77-.97-2.66,0-.69.22-1.03.67-1.03.16,0,.34.1.55.3.77.69,1.65,1.29,2.66,1.82,1.01.52,2.26.79,3.75.79s2.54-.26,3.27-.79c.73-.52,1.09-1.23,1.09-2.12,0-.81-.38-1.45-1.15-1.94-.77-.48-1.72-.92-2.87-1.3-1.15-.38-2.3-.84-3.45-1.36-1.15-.52-2.11-1.21-2.87-2.06-.77-.85-1.15-1.98-1.15-3.39,0-2.14.81-3.78,2.42-4.93,1.61-1.15,3.55-1.72,5.81-1.72,1.98,0,3.69.36,5.14,1.09.81.32,1.33.74,1.57,1.24.24.5.26,1.18.06,2.03l-.18.79c-.04.28-.18.42-.42.42-.08,0-.17-.02-.27-.06-.1-.04-.19-.08-.27-.12Z"/><path class="cls-2" d="M.47,33.64c-.31,0-.47-.19-.47-.56V.56C0,.19.15,0,.47,0h.37C1.9,0,2.8.44,3.55,1.31c.75.87,1.12,2.06,1.12,3.55v28.22c0,.37-.16.56-.47.56H.47Z"/><path class="cls-2" d="M29.27,33.64c-.31,0-.47-.19-.47-.56V4.86c0-1.49.37-2.68,1.12-3.55C30.67.44,31.57,0,32.63,0h.37c.31,0,.47.19.47.56v32.52c0,.37-.15.56-.47.56h-3.74Z"/><path class="cls-2" d="M16.74,4.78h0c1.32,0,2.39,1.07,2.39,2.39v25.72c0,.41-.34.75-.75.75h-3.27c-.41,0-.75-.34-.75-.75V7.17c0-1.32,1.07-2.39,2.39-2.39Z"/></g></svg>