<?xml version="1.0" encoding="UTF-8"?>
<svg id="Camada_2" data-name="Camada 2" xmlns="http://www.w3.org/2000/svg" width="9.1cm" height="1.2cm" viewBox="0 0 256.9 34.3">
  <g>
    <path d="M.7,33.6c-.4,0-.7-.3-.7-.8V.9C0,.4.2.1.7.1h.5C2.6.1,3.9.7,4.9,1.9c1,1.2,1.6,2.9,1.6,4.9v26c0,.5-.2.8-.7.8H.7Z" style="fill: #d85151;"/>
    <path d="M26.7,33.6c-.4,0-.7-.3-.7-.8V6.9c0-2.1.5-3.7,1.6-4.9,1-1.2,2.3-1.8,3.8-1.8h.5c.4,0,.7.3.7.8v31.9c0,.5-.2.8-.7.8h-5.2,0Z" style="fill: #d85151;"/>
    <path d="M16.3,6.7h0c1.8,0,3.3,1.5,3.3,3.3v22.5c0,.6-.5,1-1,1h-4.5c-.6,0-1-.5-1-1V10.1c0-1.8,1.5-3.3,3.3-3.3h0Z" style="fill: #d85151;"/>
  </g>
  <g>
    <path d="M59.1,14.3c.6-.9,1.5-1.7,2.6-2.4,1.2-.7,2.5-1,4.2-1s3.3.4,4.6,1.1,2.3,1.7,3.1,3c.7-1.1,1.7-2,3-2.8,1.3-.9,2.8-1.3,4.8-1.3,2.9,0,5.1.9,6.7,2.6,1.6,1.7,2.4,4.1,2.4,7.1v12.5c0,.4-.2.5-.5.5h-3.5c-.3,0-.5-.2-.5-.5v-11.7c0-2.1-.5-3.7-1.4-4.8s-2.3-1.5-3.9-1.5-3.1.5-4.1,1.6c-1,1.1-1.5,2.7-1.5,4.9v11.5c0,.4-.2.5-.5.5h-3.6c-.3,0-.5-.2-.5-.5v-11.7c0-2.1-.5-3.7-1.4-4.8-.9-1-2.3-1.5-3.9-1.5s-3.2.5-4.2,1.6c-1,1.1-1.5,2.7-1.5,4.9v11.5c0,.4-.1.5-.4.5h-3.6c-.3,0-.5-.2-.5-.5V11.9c0-.3.2-.5.5-.5h.3c2,0,3.2,1,3.6,3h0Z" style="fill: #2d595e;"/>
    <path d="M97.7,24.1c.2,2.1,1,3.6,2.3,4.6,1.3,1,3,1.5,5.1,1.5s3.1-.2,4.1-.7c1-.4,1.9-1,2.8-1.6.2,0,.3-.2.4-.3.1-.1.3-.2.4-.2.2,0,.3,0,.4.3s.2.4.2.6c0,.9-.3,1.7-1,2.6s-1.7,1.7-3,2.3-2.9.9-4.9.9-3.8-.4-5.5-1.2-3.1-2.1-4.2-3.8c-1.1-1.7-1.6-3.9-1.6-6.6s.4-4.3,1.3-6,2.1-3.1,3.7-4.1c1.6-1,3.4-1.5,5.5-1.5s4.3.5,5.8,1.5,2.5,2.3,3.2,3.8c.7,1.5,1,3.2,1,4.9s0,1,0,1.3,0,.7,0,1c0,.5-.3.7-.9.7h-15,0ZM97.8,20.7h11.4c0-.9,0-1.8-.4-2.7s-.9-1.6-1.7-2.2-2-.9-3.4-.9-3.1.5-4.1,1.5-1.6,2.5-1.9,4.3Z" style="fill: #2d595e;"/>
    <path d="M120.9,14.3c.6-.9,1.5-1.7,2.6-2.4,1.1-.7,2.5-1,4.1-1s3.3.4,4.6,1.1c1.3.7,2.3,1.7,3.1,3,.7-1.1,1.7-2,3-2.8,1.3-.9,2.9-1.3,4.8-1.3,2.9,0,5.1.9,6.7,2.6,1.6,1.7,2.4,4.1,2.4,7.1v12.5c0,.4-.2.5-.5.5h-3.5c-.3,0-.5-.2-.5-.5v-11.7c0-2.1-.5-3.7-1.4-4.8s-2.3-1.5-3.9-1.5-3.1.5-4.1,1.6c-1,1.1-1.5,2.7-1.5,4.9v11.5c0,.4-.2.5-.5.5h-3.6c-.3,0-.5-.2-.5-.5v-11.7c0-2.1-.5-3.7-1.4-4.8-.9-1-2.2-1.5-3.9-1.5s-3.2.5-4.2,1.6c-1,1.1-1.5,2.7-1.5,4.9v11.5c0,.4-.1.5-.4.5h-3.6c-.3,0-.5-.2-.5-.5V11.9c0-.3.2-.5.5-.5h.3c2,0,3.2,1,3.6,3h0Z" style="fill: #2d595e;"/>
    <path d="M166.3,34.2c-3.4,0-6.2-1.1-8.2-3.2s-3.1-4.9-3.1-8.4,1-6.3,3.1-8.5,4.8-3.2,8.1-3.2,6.2,1.1,8.2,3.2,3.1,5,3.1,8.4-1,6.3-3.1,8.5c-2,2.1-4.8,3.2-8.2,3.2ZM166.2,29.9c1.9,0,3.5-.6,4.8-1.8,1.3-1.2,1.9-3,1.9-5.5s-.6-4.2-1.9-5.5c-1.3-1.3-2.9-1.9-4.8-1.9s-3.5.6-4.7,1.9c-1.2,1.3-1.8,3.1-1.8,5.5s.6,4.2,1.8,5.5,2.8,1.9,4.7,1.9h0Z" style="fill: #2d595e;"/>
    <path d="M184.7,14.6c.7-1.2,1.6-2.1,2.6-2.5,1-.4,2.3-.7,3.9-.7h.7c.3,0,.5.2.5.5v3.3c0,.4-.2.5-.5.5h-1.4c-2.1,0-3.6.5-4.4,1.6-.8,1.1-1.2,2.8-1.2,5.1v10.6c0,.4-.1.5-.4.5h-3.6c-.3,0-.5-.2-.5-.5V11.9c0-.3.2-.5.5-.5h.3c1,0,1.8.3,2.4.8.6.5,1,1.3,1.1,2.4h0Z" style="fill: #2d595e;"/>
    <path d="M211.6,30.5c-.9,1.2-2,2.2-3.2,2.8s-2.6.9-4.2.9c-2.2,0-4.1-.5-5.7-1.6s-2.7-2.5-3.5-4.2c-.8-1.8-1.2-3.7-1.2-5.9s.4-4.3,1.3-6,2.1-3.1,3.7-4.1c1.6-1,3.4-1.5,5.5-1.5s3.2.3,4.4,1c1.3.6,2.3,1.5,3,2.5.2-1.1.6-1.8,1.2-2.3.6-.5,1.4-.7,2.3-.7h.3c.3,0,.4.2.4.5v21.2c0,.4-.1.5-.4.5h-3.6c-.3,0-.5-.2-.5-.5v-2.6ZM204.9,30c1,0,2-.2,3.1-.6s1.9-1.2,2.6-2.3c.7-1.1,1.1-2.6,1.1-4.5s-.4-3.5-1.1-4.6c-.7-1.1-1.6-1.8-2.6-2.2-1-.4-2-.6-2.9-.6-1.7,0-3.3.6-4.6,1.8-1.3,1.2-2,3.1-2,5.6s.3,3.3,1,4.4,1.5,1.9,2.5,2.4c1,.5,2,.7,2.9.7h0Z" style="fill: #2d595e;"/>
    <path d="M231,5.4c0-.8.3-1.5.8-2,.5-.5,1.2-.8,1.9-.8s1.4.3,1.9.8c.5.5.8,1.2.8,2s-.3,1.4-.8,1.9c-.5.5-1.1.8-1.9.8s-1.4-.3-1.9-.8c-.5-.5-.8-1.2-.8-1.9ZM231.9,33.6c-.3,0-.5-.2-.5-.5V11.9c0-.4.2-.5.5-.5h.3c1.2,0,2.1.3,2.8,1,.7.7,1,1.7,1,3.1v17.6c0,.4-.2.5-.5.5h-3.6Z" style="fill: #2d595e;"/>
    <path d="M254.7,16.2c-1-.5-1.9-.9-2.8-1.1-.9-.2-1.9-.4-2.9-.4s-1.9.2-2.6.6c-.7.4-1,1-1,1.8s.4,1.4,1.1,1.9c.8.5,1.7.9,2.8,1.3s2.3.9,3.4,1.4c1.1.5,2.1,1.2,2.9,2,.8.8,1.1,2,1.1,3.4,0,2.1-.8,3.9-2.3,5.2-1.5,1.3-3.6,2-6.2,2s-3.1-.3-4.3-.9c-1.2-.6-2.1-1.3-2.8-2.2-.6-.9-1-1.8-1-2.7s.2-1,.7-1,.3.1.5.3c.8.7,1.6,1.3,2.7,1.8,1,.5,2.3.8,3.8.8s2.5-.3,3.3-.8c.7-.5,1.1-1.2,1.1-2.1s-.4-1.5-1.1-1.9c-.8-.5-1.7-.9-2.9-1.3s-2.3-.8-3.5-1.4c-1.1-.5-2.1-1.2-2.9-2.1-.8-.9-1.1-2-1.1-3.4,0-2.1.8-3.8,2.4-4.9,1.6-1.1,3.5-1.7,5.8-1.7s3.7.4,5.1,1.1c.8.3,1.3.7,1.6,1.2.2.5.3,1.2,0,2l-.2.8c0,.3-.2.4-.4.4s-.2,0-.3,0c-.1,0-.2,0-.3-.1h0Z" style="fill: #2d595e;"/>
    <path d="M222.5,0h-.3c-.3,0-.5.2-.5.5v32.6c0,.4.2.5.5.5h0s3.5,0,3.5,0c.3,0,.5-.2.5-.5V4.2c0-2.8-1.2-4.2-3.7-4.2Z" style="fill: #2d595e;"/>
  </g>
</svg>